{
  "accessors": [
    {
      "bufferView": 2,
      "componentType": 5126,
      "count": 819,
      "max": [
        0.037139248102903366,
        0.07807840406894684,
        0.002335394499823451
      ],
      "min": [
        -0.037139248102903366,
        -0.07807840406894684,
        0.002335386583581567
      ],
      "type": "VEC3"
    },
    {
      "bufferView": 2,
      "byteOffset": 9828,
      "componentType": 5126,
      "count": 819,
      "max": [
        5.175230057830049e-07,
        4.669750239827408e-07,
        1.0
      ],
      "min": [
        -5.357479153644817e-07,
        -5.311746349434543e-07,
        1.0
      ],
      "type": "VEC3"
    },
    {
      "bufferView": 1,
      "componentType": 5126,
      "count": 819,
      "max": [
        0.9858754873275757,
        0.9885445237159729
      ],
      "min": [
        0.02478128671646118,
        0.00847356766462326
      ],
      "type": "VEC2"
    },
    {
      "bufferView": 0,
      "componentType": 5125,
      "count": 4560,
      "type": "SCALAR"
    },
    {
      "bufferView": 2,
      "byteOffset": 19656,
      "componentType": 5126,
      "count": 7732,
      "max": [
        0.039095450192689896,
        0.08000548928976059,
        0.00249378546141088
      ],
      "min": [
        -0.039095450192689896,
        -0.08000548928976059,
        -0.00249378546141088
      ],
      "type": "VEC3"
    },
    {
      "bufferView": 2,
      "byteOffset": 112440,
      "componentType": 5126,
      "count": 7732,
      "max": [
        1.0,
        1.0,
        0.9999966621398926
      ],
      "min": [
        -1.0,
        -1.0,
        -0.9999966621398926
      ],
      "type": "VEC3"
    },
    {
      "bufferView": 0,
      "byteOffset": 18240,
      "componentType": 5125,
      "count": 44352,
      "type": "SCALAR"
    },
    {
      "bufferView": 2,
      "byteOffset": 205224,
      "componentType": 5126,
      "count": 540,
      "max": [
        0.03909306973218918,
        0.06714311987161636,
        0.0024936427362263203
      ],
      "min": [
        -0.03909306973218918,
        -0.06714311987161636,
        -0.0024936427362263203
      ],
      "type": "VEC3"
    },
    {
      "bufferView": 2,
      "byteOffset": 211704,
      "componentType": 5126,
      "count": 540,
      "max": [
        0.999999463558197,
        0.001663264469243586,
        0.9999806880950928
      ],
      "min": [
        -0.999999463558197,
        -0.001663264469243586,
        -0.9999806880950928
      ],
      "type": "VEC3"
    },
    {
      "bufferView": 0,
      "byteOffset": 195648,
      "componentType": 5125,
      "count": 2112,
      "type": "SCALAR"
    },
    {
      "bufferView": 2,
      "byteOffset": 218184,
      "componentType": 5126,
      "count": 840,
      "max": [
        0.037139248102903366,
        0.07807841151952744,
        0.002335394499823451
      ],
      "min": [
        -0.037139248102903366,
        -0.07807841151952744,
        -0.002335394499823451
      ],
      "type": "VEC3"
    },
    {
      "bufferView": 2,
      "byteOffset": 228264,
      "componentType": 5126,
      "count": 840,
      "max": [
        1.0,
        1.0,
        3.476446863714955e-06
      ],
      "min": [
        -1.0,
        -1.0,
        -3.476446863714955e-06
      ],
      "type": "VEC3"
    },
    {
      "bufferView": 0,
      "byteOffset": 204096,
      "componentType": 5125,
      "count": 4032,
      "type": "SCALAR"
    },
    {
      "bufferView": 2,
      "byteOffset": 238344,
      "componentType": 5126,
      "count": 651,
      "max": [
        0.03713909909129143,
        0.07807841151952744,
        -0.0023353868164122105
      ],
      "min": [
        -0.03713909909129143,
        -0.07807841151952744,
        -0.0023353942669928074
      ],
      "type": "VEC3"
    },
    {
      "bufferView": 2,
      "byteOffset": 246156,
      "componentType": 5126,
      "count": 651,
      "max": [
        5.048740945312602e-07,
        4.931257535645273e-07,
        -1.0
      ],
      "min": [
        -4.89176386508916e-07,
        -4.931257535645273e-07,
        -1.0
      ],
      "type": "VEC3"
    },
    {
      "bufferView": 1,
      "byteOffset": 6552,
      "componentType": 5126,
      "count": 651,
      "max": [
        0.0,
        0.0
      ],
      "min": [
        0.0,
        0.0
      ],
      "type": "VEC2"
    },
    {
      "bufferView": 0,
      "byteOffset": 220224,
      "componentType": 5125,
      "count": 3600,
      "type": "SCALAR"
    }
  ],
  "asset": {
    "extras": {
      "author": "Jeferson Camargo Brasil (https://sketchfab.com/sidbeyond)",
      "license": "SKETCHFAB Standard (https://sketchfab.com/licenses)",
      "source": "https://sketchfab.com/3d-models/glass-smartphone-design-d0b0c3c0d2064788934be731daeeb65b",
      "title": "Glass Smartphone Design"
    },
    "generator": "Sketchfab-15.50.0",
    "version": "2.0"
  },
  "bufferViews": [
    {
      "buffer": 0,
      "byteLength": 234624,
      "name": "floatBufferViews",
      "target": 34963
    },
    {
      "buffer": 0,
      "byteLength": 11760,
      "byteOffset": 234624,
      "byteStride": 8,
      "name": "floatBufferViews",
      "target": 34962
    },
    {
      "buffer": 0,
      "byteLength": 253968,
      "byteOffset": 246384,
      "byteStride": 12,
      "name": "floatBufferViews",
      "target": 34962
    }
  ],
  "buffers": [
    {
      "byteLength": 500352,
      "uri": "scene.bin"
    }
  ],
  "extensionsUsed": [
    "KHR_materials_emissive_strength",
    "KHR_materials_specular",
    "KHR_materials_clearcoat"
  ],
  "images": [
    {
      "uri": "textures/tela1_baseColor.png"
    },
    {
      "uri": "textures/tela1_emissive.png"
    }
  ],
  "materials": [
    {
      "alphaMode": "BLEND",
      "emissiveFactor": [
        1.0,
        1.0,
        1.0
      ],
      "emissiveTexture": {
        "index": 1
      },
      "extensions": {
        "KHR_materials_emissive_strength": {
          "emissiveStrength": 9.676219965622753
        },
        "KHR_materials_specular": {
          "specularColorFactor": [
            1.0,
            1.0,
            1.0
          ],
          "specularFactor": 1.0
        }
      },
      "name": "tela1",
      "pbrMetallicRoughness": {
        "baseColorFactor": [
          1.0,
          1.0,
          1.0,
          0.1
        ],
        "baseColorTexture": {
          "index": 0
        },
        "metallicFactor": 0.0,
        "roughnessFactor": 0.0
      }
    },
    {
      "doubleSided": true,
      "extensions": {
        "KHR_materials_specular": {
          "specularColorFactor": [
            1.0,
            1.0,
            1.0
          ],
          "specularFactor": 0.37638209945020784
        }
      },
      "name": "GRAFENO",
      "pbrMetallicRoughness": {
        "baseColorFactor": [
          0.004501410116228674,
          0.004501410116228674,
          0.004501410116228674,
          1.0
        ],
        "metallicFactor": 0.8274310931233314,
        "roughnessFactor": 0.4
      }
    },
    {
      "doubleSided": true,
      "extensions": {
        "KHR_materials_specular": {
          "specularColorFactor": [
            1.0,
            1.0,
            1.0
          ],
          "specularFactor": 0.07771452255854494
        }
      },
      "name": "DETALHE",
      "pbrMetallicRoughness": {
        "baseColorFactor": [
          0.026419646755700438,
          0.026419646755700438,
          0.026419646755700438,
          1.0
        ],
        "roughnessFactor": 0.5
      }
    },
    {
      "doubleSided": true,
      "extensions": {
        "KHR_materials_specular": {
          "specularColorFactor": [
            1.0,
            1.0,
            1.0
          ],
          "specularFactor": 0.0
        }
      },
      "name": "black",
      "pbrMetallicRoughness": {
        "baseColorFactor": [
          0.0,
          0.0,
          0.0,
          1.0
        ],
        "metallicFactor": 0.0
      }
    },
    {
      "alphaMode": "BLEND",
      "extensions": {
        "KHR_materials_clearcoat": {
          "clearcoatFactor": 1.0,
          "clearcoatRoughnessFactor": 0.04
        },
        "KHR_materials_specular": {
          "specularColorFactor": [
            1.0,
            1.0,
            1.0
          ],
          "specularFactor": 1.0
        }
      },
      "name": "transparente",
      "pbrMetallicRoughness": {
        "baseColorFactor": [
          1.0,
          1.0,
          1.0,
          0.19352439931245502
        ],
        "baseColorTexture": {
          "index": 0
        },
        "roughnessFactor": 0.0
      }
    }
  ],
  "meshes": [
    {
      "name": "Object_0",
      "primitives": [
        {
          "attributes": {
            "NORMAL": 1,
            "POSITION": 0,
            "TEXCOORD_0": 2
          },
          "indices": 3,
          "material": 0,
          "mode": 4
        }
      ]
    },
    {
      "name": "Object_1",
      "primitives": [
        {
          "attributes": {
            "NORMAL": 5,
            "POSITION": 4
          },
          "indices": 6,
          "material": 1,
          "mode": 4
        }
      ]
    },
    {
      "name": "Object_2",
      "primitives": [
        {
          "attributes": {
            "NORMAL": 8,
            "POSITION": 7
          },
          "indices": 9,
          "material": 2,
          "mode": 4
        }
      ]
    },
    {
      "name": "Object_3",
      "primitives": [
        {
          "attributes": {
            "NORMAL": 11,
            "POSITION": 10
          },
          "indices": 12,
          "material": 3,
          "mode": 4
        }
      ]
    },
    {
      "name": "Object_4",
      "primitives": [
        {
          "attributes": {
            "NORMAL": 14,
            "POSITION": 13,
            "TEXCOORD_0": 15
          },
          "indices": 16,
          "material": 4,
          "mode": 4
        }
      ]
    }
  ],
  "nodes": [
    {
      "children": [
        1
      ],
      "matrix": [
        1.0,
        0.0,
        0.0,
        0.0,
        0.0,
        2.220446049250313e-16,
        -1.0,
        0.0,
        0.0,
        1.0,
        2.220446049250313e-16,
        0.0,
        0.0,
        0.0,
        0.0,
        1.0
      ],
      "name": "Sketchfab_model"
    },
    {
      "children": [
        2
      ],
      "name": "root"
    },
    {
      "children": [
        3,
        5,
        9
      ],
      "matrix": [
        1.0,
        0.0,
        0.0,
        0.0,
        0.0,
        2.220446049250313e-16,
        1.0,
        0.0,
        0.0,
        -1.0,
        2.220446049250313e-16,
        0.0,
        0.0,
        0.0,
        0.0,
        1.0
      ],
      "name": "GLTF_SceneRootNode"
    },
    {
      "children": [
        4
      ],
      "name": "CAMADAS DE GRAFENO (GRAPHENE LAYERS)_0"
    },
    {
      "mesh": 0,
      "name": "Object_4"
    },
    {
      "children": [
        6,
        7,
        8
      ],
      "name": "GRAFENO (GRAPHENE)_1"
    },
    {
      "mesh": 1,
      "name": "Object_6"
    },
    {
      "mesh": 2,
      "name": "Object_7"
    },
    {
      "mesh": 3,
      "name": "Object_8"
    },
    {
      "children": [
        10
      ],
      "name": "CAMADAS DE GRAFENO (GRAPHENE LAYERS).001_2"
    },
    {
      "mesh": 4,
      "name": "Object_10"
    }
  ],
  "samplers": [
    {
      "magFilter": 9729,
      "minFilter": 9987,
      "wrapS": 10497,
      "wrapT": 10497
    }
  ],
  "scene": 0,
  "scenes": [
    {
      "name": "Sketchfab_Scene",
      "nodes": [
        0
      ]
    }
  ],
  "textures": [
    {
      "sampler": 0,
      "source": 0
    },
    {
      "sampler": 0,
      "source": 1
    }
  ]
}
